<svg xmlns="http://www.w3.org/2000/svg" width="54" height="54" viewBox="0 0 54 54">
  <defs>
    <style>
      .cls-1 {
        fill: #131212;
        fill-rule: evenodd;
        opacity: 0.2;
      }
    </style>
  </defs>
  <path id="path30" class="cls-1" d="M1310.09,125.593a4.164,4.164,0,0,1-.22,1.671c-0.53.747-1.23,1.407-1.72,2.155a8.653,8.653,0,0,1-1.53,1.978c-0.44.308,0.96,0.044,1.27-.132a4.621,4.621,0,0,0,1.67-1.539,1.944,1.944,0,0,0,.35-0.967,3.6,3.6,0,0,0,.09-0.44c0-.044,0-0.264.05-0.22a4.943,4.943,0,0,1,.04,1.407,1.7,1.7,0,0,1-.48.968,12.963,12.963,0,0,0-1.5,2.506,3.038,3.038,0,0,1-.53,1.012,2.2,2.2,0,0,0-.57.484c-0.04.131,0.22-.044,0.35-0.044a3.56,3.56,0,0,0,2.51-1.891,4.3,4.3,0,0,0,.44-1.319v-0.4a1.075,1.075,0,0,1-.04-0.308,4.613,4.613,0,0,1,.26,1.5,5.28,5.28,0,0,1-.53,1.143,14.65,14.65,0,0,0-1.19,2.639,2.419,2.419,0,0,1-.74,1.231c-0.18.22,0.83-.176,1.1-0.308a3.6,3.6,0,0,0,1.67-2.858,2.943,2.943,0,0,1-.05-0.836c0.09-.131.09,0.308,0.14,0.484a3.54,3.54,0,0,0,.21.7,3.093,3.093,0,0,1-.57,1.8,16.956,16.956,0,0,1-1.36,3.649,4.9,4.9,0,0,0,1.06-.439,3.776,3.776,0,0,0,1.49-2.815,3.811,3.811,0,0,1-.13-0.967,0.814,0.814,0,0,1,.09.308,2.37,2.37,0,0,0,.22.528,2.368,2.368,0,0,1-.09,1.627c-0.31,1.055-.31,2.55-0.71,3.6-0.08.264-.61,0.88-0.21,0.7a3.627,3.627,0,0,0,1.8-4.178c-0.31-.923.61,0.792,0.57,1.276-0.13.879-.35,1.715-0.44,2.638a5.586,5.586,0,0,1-.26,2.419c-0.27.527,0.26,0,.39-0.132a3.518,3.518,0,0,0,1.28-2.507,3.037,3.037,0,0,0-.18-1.319c-0.04-.22-0.35-0.748-0.17-0.527a6.379,6.379,0,0,1,.79,1.055h0a1.626,1.626,0,0,1,0,.791c-0.05,1.232.08,2.551,0,3.738a2.78,2.78,0,0,1-.09.879c-0.05.088-.22,0.308-0.13,0.264,0.96-.088,1.45-2.066,1.49-2.77s-0.61-2.067-.39-1.847c1.23,1.144.66,3.122,1.14,4.617a2.86,2.86,0,0,1,.18,1.364c0,0.175-.18.747-0.05,0.571,0.09-.132.22-0.22,0.31-0.352a3.784,3.784,0,0,0,.31-4,1.013,1.013,0,0,0-.22-0.352,1.087,1.087,0,0,1-.22-0.264,2.4,2.4,0,0,1,1.18,1.539c0.22,0.88.31,1.8,0.53,2.595a7.735,7.735,0,0,1,.49,1.627,3.042,3.042,0,0,0-.05.879c0.05,0.132.13-.22,0.22-0.308a1.162,1.162,0,0,0,.27-0.4,3.856,3.856,0,0,0,.22-2.727,2.918,2.918,0,0,0-.71-1.275c-0.13-.132-0.48-0.4-0.31-0.352,0.75,0.044,1.37,1.187,1.54,1.8,0.22,0.748.4,1.539,0.66,2.287a4.67,4.67,0,0,1,.62,1.979c0,0.7.61-.792,0.66-1.232a3.87,3.87,0,0,0-.44-2.33c-0.18-.308-1.19-1.187-0.75-0.968a2.236,2.236,0,0,1,1.32,1.188c0.53,1.231,1.28,2.418,1.76,3.649a2.014,2.014,0,0,1,.22.572,0.793,0.793,0,0,0,.09.528c1.05-1.012.08-3.386-.53-4.134a2.671,2.671,0,0,0-.75-0.659,0.041,0.041,0,0,1-.04-0.044,2.869,2.869,0,0,1,1.58,1.1c0.62,1.055,1.14,2.023,1.85,3.034a3.233,3.233,0,0,1,.53,1.012,0.879,0.879,0,0,0,.08.439,2.614,2.614,0,0,0,.31-1.671,3.861,3.861,0,0,0-1.19-2.418,7.154,7.154,0,0,1-.96-0.572c0-.044.13,0,0.17,0.044a1.422,1.422,0,0,1,.4.132,2,2,0,0,1,1.32.879,17.1,17.1,0,0,0,1.14,1.452c0.44,0.527.88,1.055,1.28,1.583,0.17,0.264.52,1.011,0.52,0.923a3.666,3.666,0,0,0-1.76-4.045h-0.04a1.419,1.419,0,0,0-.44-0.22,0.99,0.99,0,0,0-.22-0.088c0.26,0.044.44,0.088,0.66,0.132,1.14,0.307,1.45,1.1,2.46,2.066a10.035,10.035,0,0,1,2.07,2.287,0.21,0.21,0,0,0,.09.132,3.026,3.026,0,0,0-.09-1.671,4.008,4.008,0,0,0-1.1-1.671,2.754,2.754,0,0,0-.79-0.528,1.934,1.934,0,0,1-.66-0.264,3.165,3.165,0,0,1,1.45.22,5.706,5.706,0,0,1,1.1,1.012,7.4,7.4,0,0,0,.57.527c0.57,0.484,1.23.792,1.76,1.32a0.241,0.241,0,0,1,.18.132,1.165,1.165,0,0,0,.57.615,2.783,2.783,0,0,0-.09-0.879,3.361,3.361,0,0,0-.48-1.144,3.838,3.838,0,0,0-2.33-1.583c-0.05-.044-0.14-0.044-0.18-0.088-0.18,0-.13-0.044,0-0.044a3.54,3.54,0,0,1,1.54.22c0.31,0.22.66,0.484,0.97,0.7a11.611,11.611,0,0,0,1.23.879,5.013,5.013,0,0,0,.48.308,4.389,4.389,0,0,1,1.5,1.1c0.35,0.484.08-.263,0.08-0.527a2.747,2.747,0,0,0-1.58-2.111,5.033,5.033,0,0,0-1.71-.616c-0.09,0-.09-0.044-0.18-0.044h0.18a3.519,3.519,0,0,1,1.71.22c0.92,0.352,1.67.968,2.77,1.363a4.013,4.013,0,0,1,1.23.616,2.245,2.245,0,0,0,.53.44,1.723,1.723,0,0,0-.09-0.44,3.769,3.769,0,0,0-3.95-2.55,2.712,2.712,0,0,1,1.75-.22,19.206,19.206,0,0,0,3.08,1.275,3.525,3.525,0,0,1,1.28.484,1.674,1.674,0,0,0,.57.4,1.842,1.842,0,0,0-.13-0.439c-0.62-1.671-2.38-2.287-4.14-2.155a2.7,2.7,0,0,1,1.72-.4,18.741,18.741,0,0,0,3.16.968,3.936,3.936,0,0,1,1.28.351,6.187,6.187,0,0,0,.62.352,0.767,0.767,0,0,0-.18-0.439c-0.79-1.628-2.55-2.067-4.31-1.76a7.4,7.4,0,0,1,1.32-.615,9.666,9.666,0,0,1,2.64.528,14.985,14.985,0,0,1,2.55.351c0.57,0.264.57,0.176,0.17-.264a3.667,3.667,0,0,0-4.57-1.055,4.819,4.819,0,0,1,1.36-.791c1.24,0,2.47.439,3.79,0.22,0.7-.088,2.15.483,1.71-0.044-1.27-1.5-3.03-1.5-4.75-.792,0.35-.264.71-0.484,1.06-0.792a0.636,0.636,0,0,1,.39-0.307c0.97-.132,2.07.044,3.04-0.132a6.009,6.009,0,0,1,2.5-.132c0.4,0.132.18,0,0-.22-1.32-1.5-3.65-1.011-5.05,0,0.3-.308.61-0.528,0.88-0.835,0.08-.132.3-0.44,0.3-0.264,0-.264.49-0.22,0.71-0.264,0.48-.044.92-0.088,1.45-0.132a22.512,22.512,0,0,1,2.9-.572c0.22-.044.79,0.044,0.79,0-0.17-.527-1.45-0.879-1.93-0.967a4.234,4.234,0,0,0-3.26,1.187,7.665,7.665,0,0,1,.97-1.275,8.384,8.384,0,0,1,2.11-.572c0.97-.22,1.85-0.747,2.86-0.923a1.22,1.22,0,0,1,.44-0.044c0.09,0,.35.088,0.31,0-0.22-.484-1.54-0.748-2.07-0.7a4.279,4.279,0,0,0-3.3,1.8,15.213,15.213,0,0,1,1.01-1.627c0.62-.572,1.94-0.66,2.73-0.967,0.97-.44,1.63-1.1,2.81-1.1-1.84-1.1-3.82-.308-5.05,1.319a7.3,7.3,0,0,1,.7-1.451c0.53-.659,1.85-0.835,2.6-1.275a6.38,6.38,0,0,1,2.63-1.275,3.7,3.7,0,0,0-4.88,1.671,8.354,8.354,0,0,1,.53-1.407,5.549,5.549,0,0,1,1.58-1.056c1.15-.659,2.03-1.847,3.39-2.154a3.75,3.75,0,0,0-4.71,2.374,8.213,8.213,0,0,1,.44-1.627c0.4-.7,1.59-1.143,2.2-1.759a6.789,6.789,0,0,1,2.29-1.8,3.576,3.576,0,0,0-3.91,1.627,6.927,6.927,0,0,0-.44,1.056c0.04-.484.13-1.012,0.22-1.5,0.08-.616,1.45-1.452,1.84-1.891a8.79,8.79,0,0,1,2.29-2.331,3.7,3.7,0,0,0-4.09,3.386c0.04-.528.09-1.011,0.09-1.583,0-.7,1.19-1.539,1.63-2.111a7.827,7.827,0,0,1,2.02-2.506,3.662,3.662,0,0,0-3.52,2.462c-0.13.352-.09,0.792-0.22,1.144a3.983,3.983,0,0,1,.04-1.759c0.4-.7.88-1.32,1.28-1.979,0.57-.968.79-1.979,1.71-2.771-2.15.264-3.25,1.979-3.25,4.178a5.905,5.905,0,0,1-.18-1.891c0.27-.7.71-1.363,1.06-2.111,0.53-1.011.57-2.066,1.5-2.858a3.683,3.683,0,0,0-2.95,3.122,8.483,8.483,0,0,0,.04,1.144c-0.13-.44-0.26-0.924-0.39-1.364a7.6,7.6,0,0,1,.83-2.506c0.4-1.1.4-2.155,1.1-3.122a3.789,3.789,0,0,0-2.24,4.793c-0.22-.616-0.75-1.319-0.57-1.979,0.35-1.5.53-3.87,1.32-5.233a3.664,3.664,0,0,0-1.94,4.529c0.22,0.66-.17-0.263-0.31-0.483a2.45,2.45,0,0,1-.17-1.847c0.26-1.407.09-3.254,0.66-4.485a3.845,3.845,0,0,0-1.41,4.837c-0.26-.352-0.53-0.748-0.79-1.1h0.04a2.9,2.9,0,0,1-.08-1.407c0.08-1.5-.36-3.166.13-4.485a3.771,3.771,0,0,0-.71,5.145,7.11,7.11,0,0,1-1.05-1.188c-0.35-.7-0.13-2.022-0.22-2.858a8.247,8.247,0,0,1-.27-2.946,3.677,3.677,0,0,0-.13,5.145,5.516,5.516,0,0,1-1.18-1.056c-0.44-.659-0.31-1.978-0.53-2.77a7.03,7.03,0,0,1-.53-2.9,3.659,3.659,0,0,0,.31,5.1,5.292,5.292,0,0,1-1.23-.924c-0.31-.747-0.44-1.627-0.75-2.418a7.273,7.273,0,0,1-1.01-3.122c-1.28,1.715-.53,3.913,1.05,5.145a4.751,4.751,0,0,1-1.54-1.012c-0.35-.7-0.57-1.495-0.92-2.2a10.289,10.289,0,0,1-1.28-2.991,3.75,3.75,0,0,0,1.41,4.925c-0.44-.176-0.88-0.395-1.32-0.571h0c-0.39,0-1.1-2.023-1.27-2.243-0.57-1.011-1.37-1.627-1.59-2.814-0.83,1.847.22,3.649,1.76,4.661a3.329,3.329,0,0,1-1.58-.748,23.672,23.672,0,0,0-1.54-2.154,0.694,0.694,0,0,0-.17-0.176,5.2,5.2,0,0,1-1.41-2.023,1.724,1.724,0,0,0-.13.66,1.875,1.875,0,0,0,0,.747,3.868,3.868,0,0,0,1.71,2.594c0.27,0.133.53,0.308,0.84,0.44a2.866,2.866,0,0,0-.84-0.176,3.468,3.468,0,0,0-.61-0.088,3.762,3.762,0,0,1-1.1-1.231,0.21,0.21,0,0,1-.09-0.132c-0.75-.923-1.89-1.539-2.42-2.594a3.192,3.192,0,0,1-.22-0.4,3.462,3.462,0,0,0,.22,2.023,4.327,4.327,0,0,0,2.42,2.154,2.866,2.866,0,0,1-2.42-1.055c-0.22-.22-0.48-0.484-0.75-0.791-0.88-.748-1.84-1.056-2.42-2.111a3.692,3.692,0,0,0,3.17,3.826,5.7,5.7,0,0,0-.84.044h-0.52a2.8,2.8,0,0,1-1.01-.7c-0.71-.484-1.46-0.923-2.16-1.407a5.935,5.935,0,0,1-1.49-1.275,3.925,3.925,0,0,0,1.49,2.726,4.659,4.659,0,0,0,2.02.792,7.193,7.193,0,0,1-1.32.175,2.3,2.3,0,0,1-.7-0.263c-0.62-.308-1.27-0.88-1.8-1.144a8.579,8.579,0,0,1-2.55-1.451c0.22,2.023,1.98,2.99,4,3.034-0.48.132-.92,0.264-1.36,0.352-0.53.132-1.85-.835-2.33-1.055-1.06-.484-2.07-0.484-3-1.319a3.876,3.876,0,0,0,2.82,2.682,11.034,11.034,0,0,0,1.23.044c0.48,0-.4.176-0.57,0.264a1.9,1.9,0,0,1-1.54-.132c-1.36-.4-3.34-0.572-4.57-1.363a3.76,3.76,0,0,0,3.07,2.286c0.49,0.044.88-.176,1.37-0.176,0.53,0-.44.264-0.62,0.352a1.752,1.752,0,0,1-1.49.088c-1.37-.264-3.43-0.264-4.66-0.923a3.328,3.328,0,0,0,2.46,1.847,3.246,3.246,0,0,0,1.71-.044,1.1,1.1,0,0,1,.4-0.132c0.04,0,.22-0.132.17-0.044a0.615,0.615,0,0,1-.43.264c-1.1.659-1.9,0.351-3.3,0.263-1.19-.088-2.2.176-3.21-0.307a3.5,3.5,0,0,0,2.68,1.627c0.75,0.087,2.46-.66,1.89-0.22a2.572,2.572,0,0,1-1.01.659c-0.75.088-1.58,0-2.38,0.088a9.02,9.02,0,0,1-3.25.088,3.758,3.758,0,0,0,4.79.7,1.6,1.6,0,0,1,.27-0.22c0.17-.044-0.13.176-0.18,0.176l-0.66.659a3.142,3.142,0,0,1-1.93.44c-1.41.176-2.64,0.836-4,.528a3.587,3.587,0,0,0,4.35.571c0.31-.219.83-0.659,0.57-0.4a5.332,5.332,0,0,1-.79.967,3.857,3.857,0,0,1-1.19.308c-1.45.308-2.81,1.143-4.4,1.011a3.5,3.5,0,0,0,3.04.7,3,3,0,0,0,1.45-.7c0.09-.088.31-0.263,0.4-0.351-0.53.571-.49,1.011-1.24,1.319a18.892,18.892,0,0,0-2.59,1.011,4.6,4.6,0,0,1-2.29.792,3.743,3.743,0,0,0,3.83-.044c0.35-.22.57-0.616,0.92-0.88,0.4-.307-0.13.4-0.22,0.616a2.083,2.083,0,0,1-1.14.967c-1.32.616-2.73,1.8-4.27,2.023a3.6,3.6,0,0,0,3.74-.4,8.484,8.484,0,0,0,.88-0.967c0.31-.264-0.13.44-0.18,0.66a1.973,1.973,0,0,1-1.05,1.1c-1.23.748-2.6,2.155-4.05,2.594a3.862,3.862,0,0,0,3.74-.879,8.706,8.706,0,0,0,.75-1.187c0.35-.4-0.04.483-0.09,0.7a1.675,1.675,0,0,1-.92,1.187c-1.15.924-2.38,2.419-3.74,2.947a3.575,3.575,0,0,0,3.61-1.188,7.885,7.885,0,0,0,.61-1.143c0.31-.44,0,0.44,0,0.66a2.153,2.153,0,0,1-.79,1.319c-1.1,1.1-2.07,2.638-3.39,3.386a3.757,3.757,0,0,0,3.74-2.111,2.718,2.718,0,0,0,.18-0.615C1310,125.857,1310.09,125.373,1310.09,125.593Zm0.18,0.4v-0.352c0.04-.528.04-0.264,0.13-0.044a3.087,3.087,0,0,0,3.47,2.506c-1.1-.527-1.67-1.627-2.64-2.418a4.408,4.408,0,0,1-.92-0.88,2.7,2.7,0,0,1,.22-1.275,1.334,1.334,0,0,1,.04-0.4c0.09-.659.09-0.264,0.09,0.044a3.111,3.111,0,0,0,3.21,2.859c-1.14-.616-2.02-2.2-2.86-3.255-0.44-.527.13-3.034,0.18-1.8a3.1,3.1,0,0,0,2.64,2.946c0.22,0-.53-0.836-0.79-1.363-0.53-1.1-1.9-2.067-1.46-3.3,0.18-.528.49-1.539,0.44-0.968-0.08,1.495.4,2.946,1.76,3.474,0.22,0.088.93,0.4,0.58,0.044a5.777,5.777,0,0,1-1.06-2.155c-0.35-.7-1.19-1.539-0.92-2.242a6.078,6.078,0,0,1,.66-1.32,6.746,6.746,0,0,1-.05,1.232,3.1,3.1,0,0,0,1.41,2.286c0.13,0.088,1.01.528,0.75,0.22a4.588,4.588,0,0,1-.88-2.155c-0.22-.571-0.53-1.1-0.75-1.714a1.147,1.147,0,0,1-.18-0.4,3.023,3.023,0,0,1,.62-1.012,0.825,0.825,0,0,1,.18-0.263c0.48-.792.08,0.175,0.04,0.615a3.056,3.056,0,0,0,.22,1.407,2.592,2.592,0,0,0,1.01,1.363c0.22,0.132.84,0.572,0.57,0.176-0.57-.791-0.53-2.066-0.88-3.034a4.24,4.24,0,0,1-.39-1.319,4.862,4.862,0,0,1,1.27-1.583,1.089,1.089,0,0,1-.09.264,2.86,2.86,0,0,0-.26.484,3.521,3.521,0,0,0,.48,2.814,2.286,2.286,0,0,0,.97.7,1.5,1.5,0,0,1-.26-0.615c-0.22-.968-0.18-2.067-0.35-2.947a1.1,1.1,0,0,1,.04-1.275c0.35-.4,1.58-1.671.92-0.615a2.7,2.7,0,0,0-.26,2.11,2.855,2.855,0,0,0,.53,1.188,1.858,1.858,0,0,0,.7.527c-0.13-.835-0.13-1.8-0.18-2.726-0.08-.528-0.39-1.759,0-2.111a10.041,10.041,0,0,1,1.37-1.055c0.09-.044-0.09.132-0.18,0.22a0.981,0.981,0,0,1-.22.308,2.27,2.27,0,0,0-.35,1.1,2.868,2.868,0,0,0,.92,2.726c0.18,0.132-.04-0.527-0.04-0.923,0.04-.484.18-0.836,0.22-1.319a18.656,18.656,0,0,1,.04-2.243,1.486,1.486,0,0,1,.88-0.748,2.662,2.662,0,0,1,.88-0.527,0.605,0.605,0,0,1-.26.308,2.787,2.787,0,0,0-.66.967,3.446,3.446,0,0,0,.04,2.638c0.05,0.088.57,0.924,0.53,0.528-0.22-1.275.4-2.55,0.57-3.826a2.8,2.8,0,0,1,.18-0.835,8.787,8.787,0,0,1,1.1-.528c1.1-.528-0.49.7-0.71,1.847a3.346,3.346,0,0,0,.14,1.495,1.927,1.927,0,0,0,.48.7c0.09-.352,0-0.748.09-1.1,0.35-1.011.66-2.066,1.01-3.166,0.18-.7,1.32-0.528,1.89-0.923-1.1.879-1.93,2.067-1.45,3.606,0,0.132.31,0.923,0.31,0.571,0-1.1.79-1.847,1.1-2.814,0.22-.616.26-1.407,0.88-1.671a11.884,11.884,0,0,1,1.49-.44c0.09,0,.13.044,0,0.176a2.259,2.259,0,0,0-.31.176,3.243,3.243,0,0,0-1.4,1.759,2.323,2.323,0,0,0-.14,1.451,1.048,1.048,0,0,0,.27.66,3.083,3.083,0,0,0,.13-0.66c0.26-.615.83-1.143,1.1-1.715a6.278,6.278,0,0,0,.35-0.7,1.706,1.706,0,0,1,1.54-1.275,1.424,1.424,0,0,1,1.01-.132c0.09,0.088-.09.088-0.22,0.088a3.794,3.794,0,0,0-.53.308,2.672,2.672,0,0,0-1.1,1.1,3.131,3.131,0,0,0-.44,1.671,1.187,1.187,0,0,0,.22.747c0.22-.264.22-0.7,0.44-1.011,0.71-.88,1.32-1.759,1.94-2.639a1.966,1.966,0,0,1,1.67-.352c0.22,0,.44.045,0.57,0.045a5.137,5.137,0,0,0-.57.219,3.137,3.137,0,0,0-2.11,2.2,2.278,2.278,0,0,0,0,1.319c0.13,0.088.09-.264,0.13-0.352a4.239,4.239,0,0,1,.66-0.835c0.48-.484.88-0.924,1.32-1.407,0.22-.264.48-0.616,0.75-0.88a2.13,2.13,0,0,1,1.76-.132c0.13,0,.35.044,0.44,0.044-0.14.044-.31,0.088-0.44,0.132a3.5,3.5,0,0,0-1.94,1.188,2.908,2.908,0,0,0-.57,1.363v0.571c0,0.132.04,0.176,0.13,0a4.424,4.424,0,0,1,1.54-1.451c0.26-.22.53-0.571,0.84-0.879a1.728,1.728,0,0,1,1.36-.792c0.13,0,.22.044,0.35,0.044a11.888,11.888,0,0,1,1.23.308,5.563,5.563,0,0,0-1.23.176,2.8,2.8,0,0,0-1.36.835,2.939,2.939,0,0,0-.35.484,2.149,2.149,0,0,0-.36.792c-0.08.22-.22,0.967,0.05,0.571a1.952,1.952,0,0,1,.31-0.351c0.44-.44,1.1-0.66,1.62-1.1a0.084,0.084,0,0,0,.09-0.044c0.57-.483,1.32-1.363,1.98-1.187,0.53,0.132,1.01.352,1.54,0.528a3.121,3.121,0,0,0-3.17,1.5,2.681,2.681,0,0,0-.35.7,0.668,0.668,0,0,0-.09.528c0.05,0.044.05,0.044,0.09-.044a0.7,0.7,0,0,0,.13-0.22c0.14-.132.27-0.22,0.4-0.352,0.53-.307,1.1-0.527,1.63-0.835,0.52-.264,1.4-1.143,1.93-1.1a6.3,6.3,0,0,1,1.76.791,3.379,3.379,0,0,0-3.43,1.055,2.1,2.1,0,0,0-.53,1.232c0.05,0.088.13-.132,0.22-0.22a1.641,1.641,0,0,1,.44-0.308c0.49-.264,1.15-0.4,1.67-0.616a5.746,5.746,0,0,1,2.07-.923,5.657,5.657,0,0,1,1.67.923,3.446,3.446,0,0,0-3.47.792,2.662,2.662,0,0,0-.66,1.143c0.04,0.088.17-.132,0.26-0.176,0.13-.088.31-0.219,0.44-0.308,0.57-.219,1.23-0.219,1.76-0.439a14.226,14.226,0,0,1,2.07-.7c0.44-.044,1.32.924,1.67,1.188-1.54-.528-3.43-0.528-4.27,1.1a11.6,11.6,0,0,0,1.98-.264c1.23-.132,2.24-0.88,3.21-0.044a8.673,8.673,0,0,0,.92.836,3.523,3.523,0,0,0-3.6-.045c-0.27.176-1.1,1.056-.71,0.88a4.855,4.855,0,0,1,2.12-.22c1.1-.088,2.19-0.615,2.94.22,0.27,0.308.57,0.66,0.84,0.967a3.6,3.6,0,0,0-3.52-.395c-0.26.176-1.19,0.967-.75,0.835a7.443,7.443,0,0,1,2.42,0c1.94,0.044,2.33-.132,3.34,1.627-0.96-.747-2.2-1.451-3.52-0.879a2.456,2.456,0,0,0-1.09.747,0.508,0.508,0,0,0,.3-0.088,2.136,2.136,0,0,1,.53,0,8.084,8.084,0,0,1,1.8.352c0.66,0.088,1.89-.088,2.29.44a7.042,7.042,0,0,1,.88,1.5,3.377,3.377,0,0,0-3.39-1.187,2.434,2.434,0,0,0-1.14.659c-0.04.088,0.18-.044,0.31-0.044a1.1,1.1,0,0,1,.53.044,11.768,11.768,0,0,1,1.76.528c0.57,0.132,1.84.132,2.19,0.616a6.028,6.028,0,0,1,.66,1.583c-0.88-.88-1.67-1.671-3.12-1.407a1.924,1.924,0,0,0-1.23.483c0,0.088.22,0,.31,0,0.17,0,.35.044,0.53,0.044,0.61,0.176,1.09.572,1.67,0.748,0.57,0.22,1.76.264,2.06,0.791a5.734,5.734,0,0,1,.53,1.759c-0.97-1.539-2.42-2.33-4.26-1.539a6,6,0,0,1,2.41,1.1c0.53,0.307,1.72.527,2.03,1.011a5.833,5.833,0,0,1,.3,1.8,3.167,3.167,0,0,0-4.08-1.891,6.019,6.019,0,0,1,2.28,1.319c0.49,0.308,1.63.66,1.89,1.144a5.679,5.679,0,0,1,.13,1.978c-0.61-1.715-1.84-2.858-3.87-2.462a7.969,7.969,0,0,1,2.16,1.539,8.125,8.125,0,0,1,1.76,1.407,5.574,5.574,0,0,1-.09,1.891,3.194,3.194,0,0,0-3.61-2.726,6.733,6.733,0,0,1,1.98,1.759,16.828,16.828,0,0,1,1.59,1.5,0.591,0.591,0,0,1-.09.439c-0.05.528-.13,1.012-0.22,1.539-0.18-1.846-1.28-3.21-3.21-3.21,1.01,0.616,1.45,1.8,2.33,2.727a1.45,1.45,0,0,1,.7,1.319c-0.04.484-.26,1.011-0.35,1.539-0.22-1.935-.97-3.21-2.99-3.474,1.14,0.88,1.76,2.375,2.55,3.518,0.44,0.7-.13,1.583-0.44,2.331,0.13-1.935-.57-3.474-2.5-3.87,1.05,0.923,1.49,2.594,2.11,3.782,0.39,0.747-.27,1.539-0.66,2.2,0.26-1.891-.31-3.386-2.11-4a16.492,16.492,0,0,1,1.67,4c0.26,0.748-.44,1.452-0.93,2.067,0.49-1.847.18-3.342-1.58-4.265a7.273,7.273,0,0,1,.7,2.594c0.14,0.616.75,1.671,0.44,2.243a5.078,5.078,0,0,1-1.05,1.319c0.61-1.759.48-3.254-1.19-4.265,0.62,1.055.62,2.946,0.79,4.221,0.09,0.792-.75,1.275-1.27,1.759,0.66-1.627.79-3.166-.79-4.353a21.266,21.266,0,0,1,.35,4.133c0.04,0.968-.88,1.319-1.54,1.847,1.01-1.451,1.23-3.21-.18-4.529a6.734,6.734,0,0,1-.17,2.638,7.6,7.6,0,0,1-.09,2.2,5.152,5.152,0,0,1-1.63,1.011c1.14-1.407,1.5-2.99.31-4.485a6.351,6.351,0,0,1-.44,2.594,17.725,17.725,0,0,1-.31,2.155,0.648,0.648,0,0,1-.35.176c-0.48.22-.97,0.44-1.41,0.66,1.28-1.276,1.85-2.815.71-4.442,0.13,1.451-.71,2.9-1.06,4.222-0.22.879-1.32,0.747-2.07,1.143,1.54-1.055,2.29-2.594,1.37-4.4,0,1.055-.66,1.715-1.01,2.594-0.18.484-.36,0.967-0.58,1.451-0.3.748-1.32,0.792-2.06,0.924,1.49-.968,2.37-2.287,1.71-4.178-0.22,1.275-1.27,2.551-1.89,3.65a2.036,2.036,0,0,1-.09.22,1.826,1.826,0,0,1-1.62.616c-0.22,0-.4.044-0.53,0.044a5.23,5.23,0,0,1,.53-0.264,3.156,3.156,0,0,0,1.54-3.738,9.733,9.733,0,0,1-1.54,2.462,2.624,2.624,0,0,0-.44.572,1.407,1.407,0,0,1-.88.968,10.822,10.822,0,0,1-1.19.087h0a2.207,2.207,0,0,1-.53-0.043,2.707,2.707,0,0,0,.53-0.22,3.062,3.062,0,0,0,2.07-3.474,8.118,8.118,0,0,1-1.72,2.022c-0.13.132-.22,0.308-0.35,0.44-0.66.792-.84,1.275-2.33,1.144-0.22,0-.4-0.088-0.62-0.088a3.187,3.187,0,0,0,2.86-3.43,5.041,5.041,0,0,1-1.67,1.671c-0.57.571-1.32,1.759-2.15,1.627-0.22-.044-0.44-0.088-0.62-0.132a5.009,5.009,0,0,1-.88-0.22,6.074,6.074,0,0,0,.88-0.132,3.026,3.026,0,0,0,2.46-2.9,6.625,6.625,0,0,1-2.11,1.583,2.662,2.662,0,0,1-.35.307,2.889,2.889,0,0,1-1.49,1.012,5.4,5.4,0,0,1-1.68-.572,3.306,3.306,0,0,0,3.17-1.627,3.855,3.855,0,0,0,.31-1.1c-0.09.132-.22,0.22-0.31,0.352-0.83.7-1.8,0.967-2.68,1.627a2.091,2.091,0,0,1-1.15.527,3.782,3.782,0,0,1-1.23-.527,0.508,0.508,0,0,1-.22-0.088c-0.39-.176-0.17-0.088.05-0.088a3.182,3.182,0,0,0,3.65-2.331c-0.88.88-2.2,1.012-3.26,1.539a3.11,3.11,0,0,1-1.18.528,3.778,3.778,0,0,1-1.06-.66,1.544,1.544,0,0,1-.26-0.088c-0.35-.219-0.27-0.219-0.09-0.131a3.2,3.2,0,0,0,3.87-1.935c-1.01.7-2.33,0.747-3.39,1.187a2.74,2.74,0,0,1-1.14.4,3.915,3.915,0,0,1-1.06-.748c-0.08-.088-0.17-0.132-0.26-0.22-0.53-.4-0.22-0.22.04-0.088a3.139,3.139,0,0,0,4.05-1.539c-0.84.572-1.76,0.44-2.73,0.66-0.57.088-1.01,0.264-1.54,0.4-0.66.132-2.46-1.583-1.49-1.056a3.139,3.139,0,0,0,4-1.143c-1.1.484-2.9,0.4-4.13,0.528a0.734,0.734,0,0,1-.88-0.22,11.052,11.052,0,0,1-.97-1.012c-0.09-.131-0.13-0.219,0-0.131a3.185,3.185,0,0,0,4.4-.572,14.683,14.683,0,0,1-4.18.132c-0.84.044-1.41-.836-1.71-1.539-0.09-.176.04,0.044,0.13,0.044a3.152,3.152,0,0,0,4.39.044,14.327,14.327,0,0,1-3.56-.4,1.976,1.976,0,0,1-1.36-.308c-0.04-.088-1.32-1.979-0.62-1.319a3.193,3.193,0,0,0,4.27.352c-1.23.176-2.33-.528-3.52-0.748a1.626,1.626,0,0,1-1.23-.44c-0.13-.132-0.97-1.978-0.57-1.407a3.22,3.22,0,0,0,4.26.792c-1.32,0-2.24-.792-3.43-1.1a1.939,1.939,0,0,1-1.18-.483c-0.18-.22-0.97-2.419-0.36-1.539a3.146,3.146,0,0,0,4.09,1.319c-1.27-.22-2.15-1.012-3.25-1.495a2.653,2.653,0,0,1-1.19-.66,7.214,7.214,0,0,1-.26-1.275v-0.308c-0.09-.44,0-0.176.04,0a3.215,3.215,0,0,0,4,1.715c-1.18-.308-2.06-1.275-3.12-1.8a2.206,2.206,0,0,1-1.05-.7,4.1,4.1,0,0,1-.13-1.319v-0.308c-0.05-.527.04-0.219,0.13,0.044a3.083,3.083,0,0,0,3.74,2.067c-1.19-.4-1.94-1.407-2.91-2.111a3.777,3.777,0,0,1-1.01-.835A2.359,2.359,0,0,1,1310.27,125.989Z" transform="translate(-1306 -100)"/>
</svg>
