<svg xmlns="http://www.w3.org/2000/svg" width="22.813" height="23.219" viewBox="0 0 22.813 23.219">
  <defs>
    <style>
      .cls-1 {
        fill: #131212;
        fill-rule: evenodd;
      }
    </style>
  </defs>
  <path id="path14" class="cls-1" d="M57.179,57.205c-0.411,0-.822-0.206-1.233-0.206a4.486,4.486,0,0,1-1.027-.616,4.3,4.3,0,0,1-.822-1.233,11.446,11.446,0,0,1-1.027-1.644l-7.6-18.694H44.443L34.377,58.027h1.438l2.876-6.779H48.962l0.822,2.26a7.1,7.1,0,0,0,1.438,2.465,5.539,5.539,0,0,0,1.643,1.438,14.131,14.131,0,0,0,1.643.616h2.671V57.205ZM43.827,39.744L48.141,49.81H39.307l4.519-10.066h0Z" transform="translate(-34.375 -34.813)"/>
</svg>
